Patient4_TMGait_0pt6_02_left_08_EMG.mot
version=1
nRows=27
nColumns=33
inDegrees=no
endheader
time	1LAddLong	2LGlutMax	3LGlutMed	4LIliopsoas	5LSemiMemb	6LBicFemLong	7LRecFem	8LVastMed	9LVastLat	10LGasMed	11LTibAnt	12lTibPost	13LPeroneusLong	14LSol	15LExtDigLong	16LFlexDigLong	17RAddLong	18RGlutMax	19RGlutMed	20RIliopsoas	21RSemiMemb	22RBicFemLong	23RRecFem	24RVastMed	25RVastLat	26RGasMed	27RTibAnt	28RTibPost	29RPeroneusLong	30RSol	31RExtDigLong	32RFlexDigLong
10.595	0.011139	0.002289	0.62851	-0.004578	0.012054	-0.077972	-0.096741	-0.002747	-0.042114	-0.18402	0.005341	-0.012207	-0.090942	-0.28137	0.038452	-0.007172	0.051727	0.26062	0.36926	0.15823	0.2533	-0.17425	-0.24506	-0.64362	-0.15869	-0.001831	-0.19608	-0.004578	0.071106	-0.059052	0.000305	-0.005951
10.596	0.006561	0.007477	0.6807	-0.001068	0.013885	-0.02594	-0.083923	0.002899	-0.049438	-0.22675	0.008087	-0.009766	-0.030975	0.10773	0.025482	0.007019	0.057678	0.037079	0.12528	0.065002	0.25543	-0.56076	-0.12421	-0.62836	-0.16205	0.009155	-0.40146	-0.006409	0.13412	-0.10956	-0.002441	-0.017242
10.597	0.010529	0.002289	0.69076	0.009613	-0.005798	-0.027924	-0.095215	0.005035	-0.053253	-0.22125	-0.014038	-0.006561	-0.004578	0.58731	0.006409	-0.001831	0.036621	-0.053558	-0.078583	0.06958	0.18829	-0.9964	-0.16113	-0.54733	-0.16434	0.005798	-0.43366	0.000458	0.17838	-0.092316	-0.000153	-0.011749
10.598	0.010376	0.003967	0.69565	-0.001831	-0.008087	-0.023346	-0.089569	0.003204	-0.054016	0.002747	-0.000153	-0.005188	0.030823	0.92422	0.010529	-0.10651	0.018158	-0.17471	0.072937	0.061493	0.25787	-1.3914	-0.17609	-0.059357	0.001221	-0.00061	0.24612	-0.005646	0.05661	-0.05722	0.002136	-0.014801
10.599	-0.000305	-0.001831	0.70984	-0.003357	-0.007629	0.010376	-0.081024	0.00351	-0.056152	0.19486	-0.007782	-0.002136	0.16769	0.66849	0.020752	-0.089417	0.051422	-0.1767	0.11826	0.027008	0.17197	-1.14	-0.13443	-0.10544	0.056763	0.005493	0.55786	-0.00351	-0.08316	-0.064087	-0.002899	-0.009308
10.6	0.004578	0.033875	0.70831	0.005341	-0.001526	0.00824	-0.13428	0.001221	-0.036011	0.29785	-0.000153	-0.00946	0.12405	-0.008545	0.029602	-0.052795	0.054626	0.003815	-0.19653	0.029907	0.029144	-0.83038	0.033112	-0.18951	0.020752	0.002136	0.25085	-0.008545	-0.1532	-0.046082	-0.003662	-0.014648
10.601	0.002136	0.011139	0.73242	-0.000916	0.011749	0.038605	-0.14664	-0.003967	-0.029449	0.40787	0.003967	-0.015411	0.040131	-0.55756	0.032654	-0.21683	-0.006561	-0.12009	-0.41565	0.028229	0.06424	-0.63904	0.068512	-0.2388	0.067596	0.00946	-0.044861	-0.005951	-0.13825	-0.036926	-0.001221	-0.002747
10.602	0.006104	-0.020294	0.69275	0.00473	0.017242	0.11246	-0.13184	-0.002899	-0.02121	0.41	0.008698	-0.005493	-0.018921	-0.4422	0.023346	0.040436	-0.082703	-0.2803	-0.52338	0.020752	0.54321	-0.69183	-0.005493	-0.2301	0.11551	0.003357	-0.65765	-0.009766	0.19379	0.001984	0.001221	-0.007629
10.603	0.012817	-0.00946	0.69	0.015717	-0.018005	0.11765	-0.12924	-0.005341	-0.014648	0.20218	0.030823	0.036163	-0.063934	-0.22217	0.059814	0.088959	-0.090027	-0.23086	-0.27573	0.023499	0.5188	-0.67596	0.015411	-0.095978	0.10437	0.005035	-0.67688	-0.010529	0.14236	0.037842	-0.002747	-0.006866
10.604	0.015564	0.031738	0.68405	0.010071	-0.037537	0.096283	-0.096588	0.002289	-0.015106	-0.002747	0.019073	0.046234	-0.059662	-0.23956	0.053101	-0.15167	-0.083008	-0.32227	-0.17136	0.011749	-0.17151	-0.65002	0.036163	0.15381	0.14206	0.011902	-0.36911	-0.009613	-0.008545	0.018005	0.000763	-0.01297
10.605	0.018005	0.013885	0.62973	0.010376	-0.041809	0.041046	-0.097504	0	-0.019836	0.012817	0.008698	0.014191	-0.048065	-0.24826	0.019836	0.224	-0.066376	-0.41351	-0.14206	-0.04715	-0.52246	-0.48065	0.098877	0.22446	0.12207	0.002594	-0.20187	-0.009613	0.11643	0.018158	-0.003204	-0.011902
10.606	0.021515	-0.034637	0.62729	-0.007172	0.001373	-0.038605	-0.10468	-0.001831	-0.017395	-0.30914	-0.00351	-0.016632	-0.038147	-0.11398	-0.001678	-0.93658	-0.057983	-0.56976	0.40024	-0.069885	-0.3331	-0.45837	0.18906	0.072937	0.14374	-0.001831	-0.13336	-0.011749	0.1358	0.057373	-0.002899	-0.011139
10.607	0.00946	-0.034332	0.62653	0.014343	0.024109	-0.021057	-0.099182	0.003204	-0.019836	-0.53299	-0.001373	-0.037079	0.068054	-0.000916	-0.031586	0.81177	-0.003052	-0.55725	0.16281	-0.049591	-0.074158	-0.57297	0.35919	-0.13718	0.25055	-0.000458	-0.082092	-0.011139	0.14542	0.031281	-0.001068	-0.009155
10.608	0.007782	-0.023041	0.6282	0.015106	0.020294	0.032349	-0.089874	0.005493	-0.033875	-0.33524	0.009308	0.20752	0.11047	0.34622	-0.059662	-0.38834	-0.032959	-0.47379	-0.041351	-0.077667	0.68008	-0.62988	0.058136	-0.20737	0.32776	0.000916	-0.090332	-0.012054	0.11734	0.038605	0	0.001984
10.609	0.000763	-0.003357	0.60944	0.013428	-0.005188	0.077667	-0.091858	-0.000458	-0.022888	-0.00061	0.004425	0.5452	0.081024	0.31326	-0.037842	-0.65079	0	-0.47745	-0.16144	-0.095215	0.52109	-0.6308	-0.025482	-0.014496	0.40268	0.000763	-0.061951	-0.005646	0.032654	0.027618	-0.002899	-0.014038
10.61	-0.009003	0.01297	0.61005	0.006256	-0.044556	0.11963	-0.10513	-0.00412	-0.023041	0.33585	-0.011902	-0.39993	0.078583	-0.39352	-0.008087	0.802	0.020599	-0.28641	0.32959	-0.045013	0.29617	-0.59616	-0.13107	0.48981	0.15732	0.011292	-0.032959	-0.000763	-0.089264	0.015259	-0.00473	-0.007324
10.611	0.008087	0.041962	0.58502	0.00885	-0.061035	0.05722	-0.1239	-0.005188	-0.009155	0.3923	-0.033722	-0.073853	0.002899	-0.12116	-0.016785	0.44754	0.006714	-0.070343	0.7074	0.008698	0.4097	-0.51132	-0.13886	0.23682	-0.11276	0.005493	-0.009613	-0.001221	-0.096283	0.017548	-0.001831	-0.016937
10.612	0.013885	0.027008	0.56397	0.004883	-0.056458	-0.036774	-0.09079	0.000763	-0.012207	0.40176	0.078583	0.44266	-0.11246	0.31021	-0.038147	-0.000458	0.000916	0.17288	0.025177	-0.02243	0.36331	-0.34729	-0.018005	0.14328	-0.16251	0.004425	0.006104	-0.000458	-0.00824	-0.020599	-0.003357	-0.01358
10.613	0.008545	-0.004272	0.54703	-0.029602	-0.03067	-0.088959	-0.082703	-0.004578	-0.02655	0.55008	-0.020447	0.3392	-0.029449	0.87418	-0.008087	-0.26215	0.011749	0.20294	-0.11887	0.008087	0.40085	-0.21255	-0.018463	-0.040741	0.14725	0.001373	0.004425	0.004883	0.013123	-0.060577	-0.003052	-0.010986
10.614	0.006104	0.053711	0.52841	0.006561	0.00946	-0.13641	-0.11505	0.001373	-0.01236	0.19348	-0.04776	0.21591	-0.079346	1.0065	-0.013123	0.4097	0.036926	0.15366	0.47104	0.043488	0.29816	-0.12833	-0.041351	-0.13473	0.13321	0.001831	-0.021057	0.003204	0	-0.099182	-0.002136	-0.014496
10.615	0.008087	0.05661	0.53253	0.003967	0.031891	-0.112	-0.098572	0.011139	-0.01709	-0.35278	-0.009766	-0.69397	-0.014343	0.78613	-0.063934	-0.17593	0.074921	0.19989	0.54321	0.092468	0.092926	0.058136	-0.036774	0.041504	0.16785	0.003052	-0.011597	0.005798	-0.084381	-0.075531	-0.001678	-0.020752
10.616	-0.003662	0.049438	0.51224	0.027466	0.042572	-0.15305	-0.11688	-0.003357	-0.015869	-0.38544	-0.000458	-0.044403	0.019379	0.64606	-0.080872	-0.22705	0.046692	0.23086	0.2713	0.073853	-0.11292	0.25497	-0.16312	0.023499	0.14633	-0.001068	0.1387	0.009613	-0.01358	-0.10101	-0.002899	-0.014648
10.617	-0.001984	0.093994	0.49622	0.006104	0.029449	-0.12909	-0.11948	0.010834	-0.016327	-0.087585	-0.00412	-0.063934	0.019379	0.34714	-0.044098	0.02655	0.044708	0.10284	-0.15625	0.053711	0.053558	0.23911	0.052338	-0.096283	0.11078	-0.006561	0.29694	0.009308	-0.025482	-0.066071	-0.006409	-0.016937
10.618	0.011292	0.091858	0.48248	0.000305	0.016632	-0.13382	-0.10544	0.002289	-0.001678	0.21149	-0.004425	-0.10254	0.009155	-0.46646	-0.02594	-0.069427	0.082703	-0.030365	-0.34821	0.015717	0.13748	0.15274	0.26062	0.47501	-0.06546	-0.013123	0.38773	0.012207	-0.10346	-0.013123	-0.003662	-0.010834
10.619	0.014954	0.083923	0.46555	-0.010376	0.028839	-0.10529	-0.12528	0.004425	-0.009155	0.12314	-0.00412	-0.078735	0.043945	-0.75211	-0.042877	-0.1413	0.064392	-0.056152	-0.29419	-0.017548	-0.035553	0.21149	0.2948	1.4279	-0.242	0.003204	0.44891	0.020752	-0.25375	-0.0914	-0.003967	0.002441
10.62	0.013733	0.050049	0.45746	0.009613	0.037079	-0.10971	-0.10986	0.002594	-0.005341	0.14526	-0.000305	-0.077515	0.015717	-0.73669	-0.02533	-0.089569	0.054474	-0.018005	-0.11719	0.024872	-0.27084	0.17868	0.4715	1.0941	-0.44266	0.012054	0.41184	0.022278	-0.33554	-0.24002	-0.00351	-0.00061
10.621	0.029449	0.058899	0.45639	0.006104	0.027466	-0.057526	-0.11688	0.000305	-0.000305	0.3894	0.002899	-0.046997	-0.022583	-0.8667	-0.036926	-0.059967	0.05722	-0.05722	0.059967	0.07019	-0.007019	0.19119	0.59219	0.69839	-0.41596	0.002594	0.2449	0.023956	-0.44388	-0.19272	-0.006866	-0.011444
